<mxfile host="app.diagrams.net" modified="2024-07-01T11:16:48.871Z" agent="Mozilla/5.0 (Windows NT 10.0; Win64; x64) AppleWebKit/537.36 (KHTML, like Gecko) Chrome/126.0.0.0 Safari/537.36 Edg/126.0.0.0" etag="XxzeVztTllEuk_f_Jti4" version="24.6.4" type="device">
  <diagram name="Page-1" id="NDXprihsREZ0YKIOsunx">
    <mxGraphModel dx="758" dy="1144" grid="1" gridSize="10" guides="1" tooltips="1" connect="1" arrows="1" fold="1" page="1" pageScale="1" pageWidth="827" pageHeight="1169" math="0" shadow="0">
      <root>
        <mxCell id="0" />
        <mxCell id="1" parent="0" />
        <mxCell id="n4D9ABptiNnmfn2cE1l5-2" value="" style="rounded=0;whiteSpace=wrap;html=1;fillColor=#000000;" vertex="1" parent="1">
          <mxGeometry width="870" height="1400" as="geometry" />
        </mxCell>
        <mxCell id="n4D9ABptiNnmfn2cE1l5-1" value="&lt;font style=&quot;font-size: 25px;&quot; color=&quot;#ffffff&quot;&gt;&lt;u&gt;Main title&lt;/u&gt;&lt;/font&gt;" style="rounded=1;whiteSpace=wrap;html=1;fillColor=#000000;strokeColor=#FFFFFF;strokeWidth=3;arcSize=50;" vertex="1" parent="1">
          <mxGeometry x="189" y="20" width="450" height="60" as="geometry" />
        </mxCell>
        <mxCell id="n4D9ABptiNnmfn2cE1l5-3" value="&lt;font style=&quot;font-size: 25px;&quot; color=&quot;#ffffff&quot;&gt;&lt;u&gt;Mini title&lt;/u&gt;&lt;/font&gt;&lt;div&gt;&lt;font style=&quot;font-size: 25px;&quot; color=&quot;#ffffff&quot;&gt;&lt;br&gt;&lt;/font&gt;&lt;/div&gt;&lt;div&gt;&lt;font style=&quot;font-size: 25px;&quot; color=&quot;#ffffff&quot;&gt;main intro&lt;/font&gt;&lt;/div&gt;" style="rounded=1;whiteSpace=wrap;html=1;fillColor=#000000;strokeColor=#FFFFFF;strokeWidth=3;arcSize=22;" vertex="1" parent="1">
          <mxGeometry x="68" y="100" width="692" height="160" as="geometry" />
        </mxCell>
        <mxCell id="n4D9ABptiNnmfn2cE1l5-4" value="&lt;font color=&quot;#ffffff&quot;&gt;&lt;span style=&quot;font-size: 25px;&quot;&gt;&lt;u&gt;Weather&lt;/u&gt;&lt;/span&gt;&lt;/font&gt;&lt;br&gt;&lt;div&gt;&lt;font style=&quot;font-size: 25px;&quot; color=&quot;#ffffff&quot;&gt;&lt;br&gt;&lt;/font&gt;&lt;/div&gt;&lt;div style=&quot;font-size: 14px;&quot;&gt;&lt;div style=&quot;background-color: rgb(0, 0, 0); color: rgb(255, 255, 255); align-items: center; display: flex; flex-flow: column wrap; gap: 1rem; justify-content: center; font-family: &amp;quot;Times New Roman&amp;quot;;&quot; class=&quot;column&quot;&gt;Time weather symbol day max temperature night minimum temperature midday wind speed 10M chance of rain today&lt;/div&gt;&lt;/div&gt;&lt;div&gt;&lt;br&gt;&lt;/div&gt;" style="rounded=1;whiteSpace=wrap;html=1;fillColor=#000000;strokeColor=#FFFFFF;strokeWidth=3;arcSize=22;" vertex="1" parent="1">
          <mxGeometry x="68" y="280" width="692" height="160" as="geometry" />
        </mxCell>
      </root>
    </mxGraphModel>
  </diagram>
</mxfile>
